<svg width="79" height="16" viewBox="0 0 79 16" fill="none" xmlns="http://www.w3.org/2000/svg">
<path d="M18.875 2.59375C18.875 2.6875 19.4688 5.25 17.75 7.6875C16.5625 9.4375 14.5938 10.6562 11.875 11.375C11.3125 11.5312 10.9062 12.0625 10.9062 12.6562C10.9062 13.4062 11.5 14 12.25 14H12.4062C13.2188 14 13.9062 14.6875 13.9062 15.5C13.9062 15.7812 13.7188 16 13.4375 16H6.46875C6.21875 16 6 15.7812 6 15.5C6 14.6875 6.65625 14 7.5 14H7.625C8.375 14 9 13.4062 8.96875 12.6562C8.96875 12.0625 8.59375 11.5312 8 11.375C5.28125 10.6562 3.3125 9.4375 2.15625 7.6875C0.5 5.25 1.09375 2.6875 1.09375 2.59375C1.1875 2.25 1.5 2 1.84375 2H5C4.96875 1.625 4.96875 1.28125 5 0.96875C5 0.4375 5.4375 0 6 0H13.9688C14.5312 0 14.9688 0.4375 14.9688 0.96875C15 1.28125 15 1.625 14.9688 2H18.125C18.4688 2 18.7812 2.25 18.875 2.59375ZM3.40625 6.875C4.125 7.96875 5.28125 8.8125 6.8125 9.4375C5.65625 7.625 5.1875 5.375 5 3.5H2.5C2.46875 4.25 2.53125 5.59375 3.40625 6.875ZM16.5625 6.875C17.4375 5.59375 17.5 4.25 17.4688 3.5H14.9688C14.7812 5.375 14.3125 7.625 13.1562 9.4375C14.6875 8.8125 15.8438 7.96875 16.5625 6.875Z" fill="#080808" fill-opacity="0.25"/>
<path d="M31.4053 8.32324H29.0503L29.0376 7.16162H31.0942C31.4412 7.16162 31.7354 7.11084 31.9766 7.00928C32.222 6.90348 32.4082 6.75326 32.5352 6.55859C32.6621 6.3597 32.7256 6.12061 32.7256 5.84131C32.7256 5.53239 32.6663 5.2806 32.5479 5.08594C32.4294 4.89128 32.2474 4.74951 32.002 4.66064C31.7607 4.57178 31.4518 4.52734 31.0752 4.52734H29.5327V12.5H27.9395V3.25781H31.0752C31.583 3.25781 32.0358 3.30648 32.4336 3.40381C32.8356 3.50114 33.1763 3.65348 33.4556 3.86084C33.7391 4.06396 33.9528 4.3221 34.0967 4.63525C34.2448 4.9484 34.3188 5.3208 34.3188 5.75244C34.3188 6.1333 34.2279 6.48242 34.0459 6.7998C33.8639 7.11296 33.5952 7.36898 33.2397 7.56787C32.8843 7.76676 32.4421 7.88525 31.9131 7.92334L31.4053 8.32324ZM31.3354 12.5H28.5488L29.2661 11.2368H31.3354C31.6951 11.2368 31.9956 11.1776 32.2368 11.0591C32.478 10.9364 32.6579 10.7692 32.7764 10.5576C32.8991 10.3418 32.9604 10.09 32.9604 9.80225C32.9604 9.50179 32.9076 9.24154 32.8018 9.02148C32.696 8.7972 32.5288 8.62581 32.3003 8.50732C32.0718 8.3846 31.7734 8.32324 31.4053 8.32324H29.6152L29.6279 7.16162H31.9575L32.3193 7.59961C32.8271 7.61654 33.244 7.72868 33.5698 7.93604C33.8999 8.14339 34.1453 8.41211 34.3062 8.74219C34.467 9.07227 34.5474 9.42773 34.5474 9.80859C34.5474 10.3968 34.4183 10.8898 34.1602 11.2876C33.9062 11.6854 33.5402 11.988 33.062 12.1953C32.5838 12.3984 32.0083 12.5 31.3354 12.5ZM39.0288 12.627C38.521 12.627 38.0618 12.5444 37.6514 12.3794C37.2451 12.2101 36.8981 11.9753 36.6104 11.6748C36.3268 11.3743 36.1089 11.021 35.9565 10.6147C35.8042 10.2085 35.728 9.77051 35.728 9.30078V9.04688C35.728 8.50944 35.8063 8.02279 35.9629 7.58691C36.1195 7.15104 36.3374 6.77865 36.6167 6.46973C36.896 6.15658 37.2261 5.91748 37.6069 5.75244C37.9878 5.5874 38.4004 5.50488 38.8447 5.50488C39.3356 5.50488 39.7651 5.5874 40.1333 5.75244C40.5015 5.91748 40.8062 6.15023 41.0474 6.45068C41.2928 6.74691 41.4748 7.10026 41.5933 7.51074C41.716 7.92122 41.7773 8.37402 41.7773 8.86914V9.52295H36.4707V8.4248H40.2666V8.3042C40.2581 8.02913 40.2031 7.771 40.1016 7.52979C40.0042 7.28857 39.854 7.09391 39.6509 6.9458C39.4478 6.79769 39.1769 6.72363 38.8384 6.72363C38.5845 6.72363 38.3581 6.77865 38.1592 6.88867C37.9645 6.99447 37.8016 7.14893 37.6704 7.35205C37.5392 7.55518 37.4377 7.80062 37.3657 8.08838C37.298 8.37191 37.2642 8.69141 37.2642 9.04688V9.30078C37.2642 9.60124 37.3044 9.88053 37.3848 10.1387C37.4694 10.3926 37.5921 10.6147 37.7529 10.8052C37.9137 10.9956 38.1084 11.1458 38.3369 11.2559C38.5654 11.3617 38.8257 11.4146 39.1177 11.4146C39.4858 11.4146 39.8138 11.3405 40.1016 11.1924C40.3893 11.0443 40.639 10.8348 40.8506 10.564L41.6567 11.3447C41.5086 11.5605 41.3161 11.7679 41.0791 11.9668C40.8421 12.1615 40.5522 12.3201 40.2095 12.4429C39.8709 12.5656 39.4774 12.627 39.0288 12.627ZM47.3696 5.63184H48.7598V12.3096C48.7598 12.9274 48.6286 13.4521 48.3662 13.8838C48.1038 14.3154 47.7378 14.6434 47.2681 14.8677C46.7983 15.0962 46.2546 15.2104 45.6367 15.2104C45.3743 15.2104 45.0824 15.1724 44.7607 15.0962C44.4434 15.02 44.1344 14.8973 43.834 14.728C43.5378 14.563 43.2902 14.3451 43.0913 14.0742L43.8086 13.1729C44.054 13.4648 44.3249 13.6785 44.6211 13.814C44.9173 13.9494 45.2284 14.0171 45.5542 14.0171C45.9054 14.0171 46.2038 13.9515 46.4492 13.8203C46.6989 13.6934 46.8914 13.505 47.0269 13.2554C47.1623 13.0057 47.23 12.701 47.23 12.3413V7.18701L47.3696 5.63184ZM42.7041 9.14209V9.00879C42.7041 8.48828 42.7676 8.01432 42.8945 7.58691C43.0215 7.15527 43.2035 6.78499 43.4404 6.47607C43.6774 6.16292 43.9652 5.92383 44.3037 5.75879C44.6423 5.58952 45.0252 5.50488 45.4526 5.50488C45.897 5.50488 46.2757 5.58529 46.5889 5.74609C46.9062 5.9069 47.1707 6.13753 47.3823 6.43799C47.5939 6.73421 47.759 7.08968 47.8774 7.50439C48.0002 7.91488 48.0911 8.37191 48.1504 8.87549V9.30078C48.0954 9.79167 48.0023 10.2402 47.8711 10.6465C47.7399 11.0527 47.5664 11.404 47.3506 11.7002C47.1348 11.9964 46.8682 12.2249 46.5508 12.3857C46.2376 12.5465 45.8674 12.627 45.4399 12.627C45.021 12.627 44.6423 12.5402 44.3037 12.3667C43.9694 12.1932 43.6816 11.9499 43.4404 11.6367C43.2035 11.3236 43.0215 10.9554 42.8945 10.5322C42.7676 10.1048 42.7041 9.64144 42.7041 9.14209ZM44.2339 9.00879V9.14209C44.2339 9.45524 44.2635 9.74723 44.3228 10.0181C44.3862 10.2889 44.4814 10.528 44.6084 10.7354C44.7396 10.9385 44.9046 11.0993 45.1035 11.2178C45.3066 11.332 45.5457 11.3892 45.8208 11.3892C46.1805 11.3892 46.4746 11.313 46.7031 11.1606C46.9359 11.0083 47.1136 10.8031 47.2363 10.5449C47.3633 10.2826 47.4521 9.99056 47.5029 9.66895V8.52002C47.4775 8.27035 47.4246 8.0376 47.3442 7.82178C47.2681 7.60596 47.1644 7.41764 47.0332 7.25684C46.902 7.0918 46.737 6.96484 46.5381 6.87598C46.3392 6.78288 46.1043 6.73633 45.8335 6.73633C45.5584 6.73633 45.3193 6.79557 45.1162 6.91406C44.9131 7.03255 44.7459 7.19548 44.6147 7.40283C44.4878 7.61019 44.3926 7.8514 44.3291 8.12646C44.2656 8.40153 44.2339 8.69564 44.2339 9.00879ZM51.9844 5.63184V12.5H50.4482V5.63184H51.9844ZM50.3467 3.8291C50.3467 3.59635 50.4229 3.40381 50.5752 3.25146C50.7318 3.09489 50.9476 3.0166 51.2227 3.0166C51.4935 3.0166 51.7072 3.09489 51.8638 3.25146C52.0203 3.40381 52.0986 3.59635 52.0986 3.8291C52.0986 4.05762 52.0203 4.24805 51.8638 4.40039C51.7072 4.55273 51.4935 4.62891 51.2227 4.62891C50.9476 4.62891 50.7318 4.55273 50.5752 4.40039C50.4229 4.24805 50.3467 4.05762 50.3467 3.8291ZM55.1772 7.09814V12.5H53.6475V5.63184H55.0884L55.1772 7.09814ZM54.9043 8.81201L54.4092 8.80566C54.4134 8.31901 54.4811 7.87256 54.6123 7.46631C54.7477 7.06006 54.9339 6.71094 55.1709 6.41895C55.4121 6.12695 55.6999 5.90267 56.0342 5.74609C56.3685 5.58529 56.7409 5.50488 57.1514 5.50488C57.4814 5.50488 57.7798 5.55143 58.0464 5.64453C58.3172 5.7334 58.5479 5.87939 58.7383 6.08252C58.9329 6.28564 59.0811 6.55013 59.1826 6.87598C59.2842 7.19759 59.335 7.59326 59.335 8.06299V12.5H57.7988V8.05664C57.7988 7.72656 57.7502 7.46631 57.6528 7.27588C57.5597 7.08122 57.4222 6.94368 57.2402 6.86328C57.0625 6.77865 56.8403 6.73633 56.5737 6.73633C56.3114 6.73633 56.0765 6.79134 55.8691 6.90137C55.6618 7.01139 55.4862 7.16162 55.3423 7.35205C55.2026 7.54248 55.0947 7.76253 55.0186 8.01221C54.9424 8.26188 54.9043 8.52848 54.9043 8.81201ZM62.4136 7.09814V12.5H60.8838V5.63184H62.3247L62.4136 7.09814ZM62.1406 8.81201L61.6455 8.80566C61.6497 8.31901 61.7174 7.87256 61.8486 7.46631C61.984 7.06006 62.1702 6.71094 62.4072 6.41895C62.6484 6.12695 62.9362 5.90267 63.2705 5.74609C63.6048 5.58529 63.9772 5.50488 64.3877 5.50488C64.7178 5.50488 65.0161 5.55143 65.2827 5.64453C65.5535 5.7334 65.7842 5.87939 65.9746 6.08252C66.1693 6.28564 66.3174 6.55013 66.4189 6.87598C66.5205 7.19759 66.5713 7.59326 66.5713 8.06299V12.5H65.0352V8.05664C65.0352 7.72656 64.9865 7.46631 64.8892 7.27588C64.7961 7.08122 64.6585 6.94368 64.4766 6.86328C64.2988 6.77865 64.0767 6.73633 63.8101 6.73633C63.5477 6.73633 63.3128 6.79134 63.1055 6.90137C62.8981 7.01139 62.7225 7.16162 62.5786 7.35205C62.439 7.54248 62.3311 7.76253 62.2549 8.01221C62.1787 8.26188 62.1406 8.52848 62.1406 8.81201ZM71.1606 12.627C70.6528 12.627 70.1937 12.5444 69.7832 12.3794C69.377 12.2101 69.0299 11.9753 68.7422 11.6748C68.4587 11.3743 68.2407 11.021 68.0884 10.6147C67.936 10.2085 67.8599 9.77051 67.8599 9.30078V9.04688C67.8599 8.50944 67.9382 8.02279 68.0947 7.58691C68.2513 7.15104 68.4692 6.77865 68.7485 6.46973C69.0278 6.15658 69.3579 5.91748 69.7388 5.75244C70.1196 5.5874 70.5322 5.50488 70.9766 5.50488C71.4674 5.50488 71.897 5.5874 72.2651 5.75244C72.6333 5.91748 72.938 6.15023 73.1792 6.45068C73.4246 6.74691 73.6066 7.10026 73.7251 7.51074C73.8478 7.92122 73.9092 8.37402 73.9092 8.86914V9.52295H68.6025V8.4248H72.3984V8.3042C72.39 8.02913 72.335 7.771 72.2334 7.52979C72.1361 7.28857 71.9858 7.09391 71.7827 6.9458C71.5796 6.79769 71.3088 6.72363 70.9702 6.72363C70.7163 6.72363 70.4899 6.77865 70.291 6.88867C70.0964 6.99447 69.9334 7.14893 69.8022 7.35205C69.6711 7.55518 69.5695 7.80062 69.4976 8.08838C69.4299 8.37191 69.396 8.69141 69.396 9.04688V9.30078C69.396 9.60124 69.4362 9.88053 69.5166 10.1387C69.6012 10.3926 69.724 10.6147 69.8848 10.8052C70.0456 10.9956 70.2402 11.1458 70.4688 11.2559C70.6973 11.3617 70.9575 11.4146 71.2495 11.4146C71.6177 11.4146 71.9456 11.3405 72.2334 11.1924C72.5212 11.0443 72.7708 10.8348 72.9824 10.564L73.7886 11.3447C73.6405 11.5605 73.4479 11.7679 73.2109 11.9668C72.974 12.1615 72.6841 12.3201 72.3413 12.4429C72.0028 12.5656 71.6092 12.627 71.1606 12.627ZM76.6387 6.93945V12.5H75.1089V5.63184H76.5688L76.6387 6.93945ZM78.7397 5.5874L78.7271 7.00928C78.634 6.99235 78.5324 6.97965 78.4224 6.97119C78.3166 6.96273 78.2108 6.9585 78.105 6.9585C77.8426 6.9585 77.612 6.99658 77.4131 7.07275C77.2142 7.14469 77.047 7.25049 76.9116 7.39014C76.7804 7.52555 76.6789 7.69059 76.6069 7.88525C76.535 8.07992 76.4927 8.29785 76.48 8.53906L76.1309 8.56445C76.1309 8.13281 76.1732 7.73291 76.2578 7.36475C76.3424 6.99658 76.4694 6.67285 76.6387 6.39355C76.8122 6.11426 77.028 5.89632 77.2861 5.73975C77.5485 5.58317 77.8511 5.50488 78.1938 5.50488C78.2869 5.50488 78.3864 5.51335 78.4922 5.53027C78.6022 5.5472 78.6847 5.56624 78.7397 5.5874Z" fill="#080808" fill-opacity="0.75"/>
</svg>
