<svg width="260" height="27" viewBox="0 0 260 27" fill="none" xmlns="http://www.w3.org/2000/svg">
<path d="M11.3926 15.1191H4.80078L4.76562 11.0762H10.1094C11.0703 11.0762 11.8379 10.9707 12.4121 10.7598C12.9863 10.5371 13.4023 10.2148 13.6602 9.79297C13.9297 9.37109 14.0645 8.84375 14.0645 8.21094C14.0645 7.48438 13.9297 6.89844 13.6602 6.45312C13.3906 6.00781 12.9629 5.68555 12.377 5.48633C11.8027 5.27539 11.0586 5.16992 10.1445 5.16992H7.12109V26H0.951172V0.40625H10.1445C11.7266 0.40625 13.1387 0.552734 14.3809 0.845703C15.623 1.12695 16.6777 1.56055 17.5449 2.14648C18.4238 2.73242 19.0918 3.4707 19.5488 4.36133C20.0059 5.24023 20.2344 6.27734 20.2344 7.47266C20.2344 8.51562 20.0117 9.49414 19.5664 10.4082C19.1211 11.3223 18.377 12.0664 17.334 12.6406C16.3027 13.2031 14.8906 13.4961 13.0977 13.5195L11.3926 15.1191ZM11.1465 26H3.30664L5.41602 21.2539H11.1465C11.9902 21.2539 12.6641 21.125 13.168 20.8672C13.6836 20.5977 14.0527 20.2461 14.2754 19.8125C14.5098 19.3672 14.627 18.875 14.627 18.3359C14.627 17.6797 14.5156 17.1113 14.293 16.6309C14.082 16.1504 13.7422 15.7812 13.2734 15.5234C12.8047 15.2539 12.1777 15.1191 11.3926 15.1191H6.20703L6.24219 11.0762H12.4473L13.8887 12.6934C15.5996 12.623 16.9531 12.8633 17.9492 13.4141C18.957 13.9648 19.6777 14.6914 20.1113 15.5938C20.5449 16.4961 20.7617 17.4395 20.7617 18.4238C20.7617 20.0996 20.3984 21.5 19.6719 22.625C18.957 23.75 17.8848 24.5938 16.4551 25.1562C15.0254 25.7188 13.2559 26 11.1465 26ZM33.1191 26.3516C31.5723 26.3516 30.1895 26.1113 28.9707 25.6309C27.752 25.1387 26.7207 24.4648 25.877 23.6094C25.0449 22.7539 24.4062 21.7695 23.9609 20.6562C23.5273 19.543 23.3105 18.3652 23.3105 17.123V16.4551C23.3105 15.0605 23.5039 13.7715 23.8906 12.5879C24.2773 11.3926 24.8516 10.3496 25.6133 9.45898C26.375 8.56836 27.3301 7.87695 28.4785 7.38477C29.627 6.88086 30.9629 6.62891 32.4863 6.62891C33.834 6.62891 35.041 6.8457 36.1074 7.2793C37.1738 7.71289 38.0762 8.33398 38.8145 9.14258C39.5645 9.95117 40.1328 10.9297 40.5195 12.0781C40.918 13.2266 41.1172 14.5156 41.1172 15.9453V18.3535H25.5781V14.6445H35.334V14.1875C35.3457 13.5547 35.2344 13.0156 35 12.5703C34.7773 12.125 34.4492 11.7852 34.0156 11.5508C33.582 11.3164 33.0547 11.1992 32.4336 11.1992C31.7891 11.1992 31.2559 11.3398 30.834 11.6211C30.4238 11.9023 30.1016 12.2891 29.8672 12.7812C29.6445 13.2617 29.4863 13.8184 29.3926 14.4512C29.2988 15.084 29.252 15.752 29.252 16.4551V17.123C29.252 17.8262 29.3457 18.4648 29.5332 19.0391C29.7324 19.6133 30.0137 20.1055 30.377 20.5156C30.752 20.9141 31.1973 21.2246 31.7129 21.4473C32.2402 21.6699 32.8379 21.7812 33.5059 21.7812C34.3145 21.7812 35.1113 21.6289 35.8965 21.3242C36.6816 21.0195 37.3555 20.5156 37.918 19.8125L40.6074 23.0117C40.2207 23.5625 39.6699 24.0957 38.9551 24.6113C38.252 25.127 37.4082 25.5488 36.4238 25.877C35.4395 26.1934 34.3379 26.3516 33.1191 26.3516ZM53.4922 20.6562C53.4922 20.3281 53.3809 20.0469 53.1582 19.8125C52.9473 19.5664 52.5723 19.3438 52.0332 19.1445C51.4941 18.9336 50.7383 18.7227 49.7656 18.5117C48.8398 18.3125 47.9668 18.0488 47.1465 17.7207C46.3379 17.3926 45.6289 16.9941 45.0195 16.5254C44.4102 16.0566 43.9297 15.5 43.5781 14.8555C43.2383 14.2109 43.0684 13.4727 43.0684 12.6406C43.0684 11.832 43.2383 11.0703 43.5781 10.3555C43.9297 9.62891 44.4395 8.99023 45.1074 8.43945C45.7871 7.87695 46.6133 7.4375 47.5859 7.12109C48.5586 6.79297 49.666 6.62891 50.9082 6.62891C52.6191 6.62891 54.0957 6.89258 55.3379 7.41992C56.5801 7.93555 57.5352 8.66211 58.2031 9.59961C58.8828 10.5254 59.2227 11.5977 59.2227 12.8164H53.2988C53.2988 12.3359 53.2168 11.9258 53.0527 11.5859C52.9004 11.2461 52.6484 10.9883 52.2969 10.8125C51.9453 10.625 51.4766 10.5312 50.8906 10.5312C50.4805 10.5312 50.1055 10.6074 49.7656 10.7598C49.4375 10.9121 49.1738 11.123 48.9746 11.3926C48.7754 11.6621 48.6758 11.9785 48.6758 12.3418C48.6758 12.5996 48.7344 12.834 48.8516 13.0449C48.9805 13.2441 49.1738 13.4316 49.4316 13.6074C49.6895 13.7715 50.0176 13.9238 50.416 14.0645C50.8145 14.1934 51.2949 14.3105 51.8574 14.416C53.1348 14.6504 54.3301 14.9844 55.4434 15.418C56.5566 15.8516 57.459 16.4668 58.1504 17.2637C58.8535 18.0605 59.2051 19.1328 59.2051 20.4805C59.2051 21.3242 59.0117 22.1035 58.625 22.8184C58.2383 23.5215 57.6816 24.1426 56.9551 24.6816C56.2285 25.209 55.3555 25.6191 54.3359 25.9121C53.3164 26.2051 52.168 26.3516 50.8906 26.3516C49.0742 26.3516 47.5391 26.0293 46.2852 25.3848C45.0312 24.7285 44.082 23.9082 43.4375 22.9238C42.8047 21.9277 42.4883 20.9199 42.4883 19.9004H48.0078C48.0312 20.4863 48.1719 20.9668 48.4297 21.3418C48.6992 21.7168 49.0566 21.9922 49.502 22.168C49.9473 22.3438 50.4629 22.4316 51.0488 22.4316C51.5879 22.4316 52.0332 22.3555 52.3848 22.2031C52.748 22.0508 53.0234 21.8457 53.2109 21.5879C53.3984 21.3184 53.4922 21.0078 53.4922 20.6562ZM72.002 6.98047V11.0938H60.541V6.98047H72.002ZM62.9492 2.25195H68.873V19.7949C68.873 20.2988 68.9316 20.6914 69.0488 20.9727C69.166 21.2422 69.3652 21.4355 69.6465 21.5527C69.9395 21.6582 70.3262 21.7109 70.8066 21.7109C71.1465 21.7109 71.4277 21.7051 71.6504 21.6934C71.873 21.6699 72.084 21.6406 72.2832 21.6055V25.8418C71.7793 26.0059 71.252 26.1289 70.7012 26.2109C70.1504 26.3047 69.5645 26.3516 68.9434 26.3516C67.6777 26.3516 66.5938 26.1523 65.6914 25.7539C64.8008 25.3555 64.1211 24.7285 63.6523 23.873C63.1836 23.0176 62.9492 21.9043 62.9492 20.5332V2.25195Z" fill="url(#paint0_linear_1048_1868)"/>
<path d="M90.1602 0.40625V26H84.0078V0.40625H90.1602ZM100.039 11.041V26H94.1152V6.98047H99.6699L100.039 11.041ZM99.3359 15.8398L97.9473 15.875C97.9473 14.4219 98.123 13.127 98.4746 11.9902C98.8262 10.8418 99.3242 9.86914 99.9688 9.07227C100.613 8.27539 101.381 7.67188 102.271 7.26172C103.174 6.83984 104.176 6.62891 105.277 6.62891C106.156 6.62891 106.959 6.75781 107.686 7.01562C108.424 7.27344 109.057 7.68945 109.584 8.26367C110.123 8.83789 110.533 9.59961 110.814 10.5488C111.107 11.4863 111.254 12.6465 111.254 14.0293V26H105.295V14.0117C105.295 13.25 105.189 12.6699 104.979 12.2715C104.768 11.8613 104.463 11.5801 104.064 11.4277C103.666 11.2754 103.18 11.1992 102.605 11.1992C101.996 11.1992 101.48 11.3164 101.059 11.5508C100.637 11.7852 100.297 12.1133 100.039 12.5352C99.793 12.9453 99.6113 13.4316 99.4941 13.9941C99.3887 14.5566 99.3359 15.1719 99.3359 15.8398ZM124.508 20.6562C124.508 20.3281 124.396 20.0469 124.174 19.8125C123.963 19.5664 123.588 19.3438 123.049 19.1445C122.51 18.9336 121.754 18.7227 120.781 18.5117C119.855 18.3125 118.982 18.0488 118.162 17.7207C117.354 17.3926 116.645 16.9941 116.035 16.5254C115.426 16.0566 114.945 15.5 114.594 14.8555C114.254 14.2109 114.084 13.4727 114.084 12.6406C114.084 11.832 114.254 11.0703 114.594 10.3555C114.945 9.62891 115.455 8.99023 116.123 8.43945C116.803 7.87695 117.629 7.4375 118.602 7.12109C119.574 6.79297 120.682 6.62891 121.924 6.62891C123.635 6.62891 125.111 6.89258 126.354 7.41992C127.596 7.93555 128.551 8.66211 129.219 9.59961C129.898 10.5254 130.238 11.5977 130.238 12.8164H124.314C124.314 12.3359 124.232 11.9258 124.068 11.5859C123.916 11.2461 123.664 10.9883 123.312 10.8125C122.961 10.625 122.492 10.5312 121.906 10.5312C121.496 10.5312 121.121 10.6074 120.781 10.7598C120.453 10.9121 120.189 11.123 119.99 11.3926C119.791 11.6621 119.691 11.9785 119.691 12.3418C119.691 12.5996 119.75 12.834 119.867 13.0449C119.996 13.2441 120.189 13.4316 120.447 13.6074C120.705 13.7715 121.033 13.9238 121.432 14.0645C121.83 14.1934 122.311 14.3105 122.873 14.416C124.15 14.6504 125.346 14.9844 126.459 15.418C127.572 15.8516 128.475 16.4668 129.166 17.2637C129.869 18.0605 130.221 19.1328 130.221 20.4805C130.221 21.3242 130.027 22.1035 129.641 22.8184C129.254 23.5215 128.697 24.1426 127.971 24.6816C127.244 25.209 126.371 25.6191 125.352 25.9121C124.332 26.2051 123.184 26.3516 121.906 26.3516C120.09 26.3516 118.555 26.0293 117.301 25.3848C116.047 24.7285 115.098 23.9082 114.453 22.9238C113.82 21.9277 113.504 20.9199 113.504 19.9004H119.023C119.047 20.4863 119.188 20.9668 119.445 21.3418C119.715 21.7168 120.072 21.9922 120.518 22.168C120.963 22.3438 121.479 22.4316 122.064 22.4316C122.604 22.4316 123.049 22.3555 123.4 22.2031C123.764 22.0508 124.039 21.8457 124.227 21.5879C124.414 21.3184 124.508 21.0078 124.508 20.6562ZM143.018 6.98047V11.0938H131.557V6.98047H143.018ZM133.965 2.25195H139.889V19.7949C139.889 20.2988 139.947 20.6914 140.064 20.9727C140.182 21.2422 140.381 21.4355 140.662 21.5527C140.955 21.6582 141.342 21.7109 141.822 21.7109C142.162 21.7109 142.443 21.7051 142.666 21.6934C142.889 21.6699 143.1 21.6406 143.299 21.6055V25.8418C142.795 26.0059 142.268 26.1289 141.717 26.2109C141.166 26.3047 140.58 26.3516 139.959 26.3516C138.693 26.3516 137.609 26.1523 136.707 25.7539C135.816 25.3555 135.137 24.7285 134.668 23.873C134.199 23.0176 133.965 21.9043 133.965 20.5332V2.25195ZM151.35 11.6914V26H145.426V6.98047H150.963L151.35 11.6914ZM156.975 6.83984L156.869 12.3418C156.635 12.3184 156.318 12.2891 155.92 12.2539C155.521 12.2188 155.188 12.2012 154.918 12.2012C154.227 12.2012 153.629 12.2832 153.125 12.4473C152.633 12.5996 152.223 12.834 151.895 13.1504C151.578 13.4551 151.344 13.8418 151.191 14.3105C151.051 14.7793 150.986 15.3242 150.998 15.9453L149.926 15.2422C149.926 13.9648 150.049 12.8047 150.295 11.7617C150.553 10.707 150.916 9.79883 151.385 9.03711C151.854 8.26367 152.422 7.67188 153.09 7.26172C153.758 6.83984 154.508 6.62891 155.34 6.62891C155.633 6.62891 155.92 6.64648 156.201 6.68164C156.494 6.7168 156.752 6.76953 156.975 6.83984ZM170.123 21.377V6.98047H176.064V26H170.51L170.123 21.377ZM170.686 17.5098L172.232 17.4746C172.232 18.752 172.08 19.9355 171.775 21.0254C171.471 22.1035 171.02 23.041 170.422 23.8379C169.836 24.6348 169.109 25.2559 168.242 25.7012C167.387 26.1348 166.396 26.3516 165.271 26.3516C164.334 26.3516 163.473 26.2227 162.688 25.9648C161.914 25.6953 161.246 25.2793 160.684 24.7168C160.121 24.1426 159.682 23.4102 159.365 22.5195C159.061 21.6172 158.908 20.5391 158.908 19.2852V6.98047H164.832V19.3203C164.832 19.7422 164.885 20.1055 164.99 20.4102C165.096 20.7148 165.248 20.9727 165.447 21.1836C165.646 21.3828 165.893 21.5352 166.186 21.6406C166.49 21.7344 166.836 21.7812 167.223 21.7812C168.113 21.7812 168.811 21.5938 169.314 21.2188C169.818 20.8438 170.17 20.334 170.369 19.6895C170.58 19.0449 170.686 18.3184 170.686 17.5098ZM187.367 21.7812C187.918 21.7812 188.387 21.6816 188.773 21.4824C189.172 21.2715 189.471 20.9785 189.67 20.6035C189.881 20.2168 189.98 19.7539 189.969 19.2148H195.541C195.553 20.6445 195.201 21.8984 194.486 22.9766C193.783 24.043 192.822 24.875 191.604 25.4727C190.396 26.0586 189.031 26.3516 187.508 26.3516C186.02 26.3516 184.719 26.1113 183.605 25.6309C182.492 25.1387 181.561 24.459 180.811 23.5918C180.072 22.7129 179.516 21.6875 179.141 20.5156C178.777 19.3438 178.596 18.0723 178.596 16.7012V16.2969C178.596 14.9258 178.777 13.6543 179.141 12.4824C179.516 11.2988 180.072 10.2734 180.811 9.40625C181.561 8.52734 182.486 7.84766 183.588 7.36719C184.701 6.875 185.996 6.62891 187.473 6.62891C189.055 6.62891 190.449 6.92773 191.656 7.52539C192.875 8.12305 193.83 8.99023 194.521 10.127C195.213 11.2637 195.553 12.6406 195.541 14.2578H189.969C189.98 13.6836 189.893 13.168 189.705 12.7109C189.518 12.2539 189.225 11.8906 188.826 11.6211C188.439 11.3398 187.941 11.1992 187.332 11.1992C186.723 11.1992 186.23 11.334 185.855 11.6035C185.48 11.873 185.193 12.248 184.994 12.7285C184.807 13.1973 184.678 13.7363 184.607 14.3457C184.549 14.9551 184.52 15.6055 184.52 16.2969V16.7012C184.52 17.4043 184.549 18.0664 184.607 18.6875C184.678 19.2969 184.812 19.8359 185.012 20.3047C185.211 20.7617 185.498 21.125 185.873 21.3945C186.248 21.6523 186.746 21.7812 187.367 21.7812ZM208.092 6.98047V11.0938H196.631V6.98047H208.092ZM199.039 2.25195H204.963V19.7949C204.963 20.2988 205.021 20.6914 205.139 20.9727C205.256 21.2422 205.455 21.4355 205.736 21.5527C206.029 21.6582 206.416 21.7109 206.896 21.7109C207.236 21.7109 207.518 21.7051 207.74 21.6934C207.963 21.6699 208.174 21.6406 208.373 21.6055V25.8418C207.869 26.0059 207.342 26.1289 206.791 26.2109C206.24 26.3047 205.654 26.3516 205.033 26.3516C203.768 26.3516 202.684 26.1523 201.781 25.7539C200.891 25.3555 200.211 24.7285 199.742 23.873C199.273 23.0176 199.039 21.9043 199.039 20.5332V2.25195ZM209.182 16.6836V16.3145C209.182 14.9199 209.381 13.6367 209.779 12.4648C210.178 11.2812 210.764 10.2559 211.537 9.38867C212.311 8.52148 213.266 7.84766 214.402 7.36719C215.539 6.875 216.852 6.62891 218.34 6.62891C219.84 6.62891 221.158 6.875 222.295 7.36719C223.443 7.84766 224.404 8.52148 225.178 9.38867C225.951 10.2559 226.537 11.2812 226.936 12.4648C227.334 13.6367 227.533 14.9199 227.533 16.3145V16.6836C227.533 18.0664 227.334 19.3496 226.936 20.5332C226.537 21.7051 225.951 22.7305 225.178 23.6094C224.404 24.4766 223.449 25.1504 222.312 25.6309C221.176 26.1113 219.863 26.3516 218.375 26.3516C216.887 26.3516 215.568 26.1113 214.42 25.6309C213.271 25.1504 212.311 24.4766 211.537 23.6094C210.764 22.7305 210.178 21.7051 209.779 20.5332C209.381 19.3496 209.182 18.0664 209.182 16.6836ZM215.105 16.3145V16.6836C215.105 17.3984 215.158 18.0664 215.264 18.6875C215.369 19.3086 215.545 19.8535 215.791 20.3223C216.037 20.7793 216.371 21.1367 216.793 21.3945C217.215 21.6523 217.742 21.7812 218.375 21.7812C218.996 21.7812 219.512 21.6523 219.922 21.3945C220.344 21.1367 220.678 20.7793 220.924 20.3223C221.17 19.8535 221.346 19.3086 221.451 18.6875C221.557 18.0664 221.609 17.3984 221.609 16.6836V16.3145C221.609 15.623 221.557 14.9727 221.451 14.3633C221.346 13.7422 221.17 13.1973 220.924 12.7285C220.678 12.248 220.344 11.873 219.922 11.6035C219.5 11.334 218.973 11.1992 218.34 11.1992C217.719 11.1992 217.197 11.334 216.775 11.6035C216.365 11.873 216.037 12.248 215.791 12.7285C215.545 13.1973 215.369 13.7422 215.264 14.3633C215.158 14.9727 215.105 15.623 215.105 16.3145ZM236.146 11.6914V26H230.223V6.98047H235.76L236.146 11.6914ZM241.771 6.83984L241.666 12.3418C241.432 12.3184 241.115 12.2891 240.717 12.2539C240.318 12.2188 239.984 12.2012 239.715 12.2012C239.023 12.2012 238.426 12.2832 237.922 12.4473C237.43 12.5996 237.02 12.834 236.691 13.1504C236.375 13.4551 236.141 13.8418 235.988 14.3105C235.848 14.7793 235.783 15.3242 235.795 15.9453L234.723 15.2422C234.723 13.9648 234.846 12.8047 235.092 11.7617C235.35 10.707 235.713 9.79883 236.182 9.03711C236.65 8.26367 237.219 7.67188 237.887 7.26172C238.555 6.83984 239.305 6.62891 240.137 6.62891C240.43 6.62891 240.717 6.64648 240.998 6.68164C241.291 6.7168 241.549 6.76953 241.771 6.83984ZM253.777 20.6562C253.777 20.3281 253.666 20.0469 253.443 19.8125C253.232 19.5664 252.857 19.3438 252.318 19.1445C251.779 18.9336 251.023 18.7227 250.051 18.5117C249.125 18.3125 248.252 18.0488 247.432 17.7207C246.623 17.3926 245.914 16.9941 245.305 16.5254C244.695 16.0566 244.215 15.5 243.863 14.8555C243.523 14.2109 243.354 13.4727 243.354 12.6406C243.354 11.832 243.523 11.0703 243.863 10.3555C244.215 9.62891 244.725 8.99023 245.393 8.43945C246.072 7.87695 246.898 7.4375 247.871 7.12109C248.844 6.79297 249.951 6.62891 251.193 6.62891C252.904 6.62891 254.381 6.89258 255.623 7.41992C256.865 7.93555 257.82 8.66211 258.488 9.59961C259.168 10.5254 259.508 11.5977 259.508 12.8164H253.584C253.584 12.3359 253.502 11.9258 253.338 11.5859C253.186 11.2461 252.934 10.9883 252.582 10.8125C252.23 10.625 251.762 10.5312 251.176 10.5312C250.766 10.5312 250.391 10.6074 250.051 10.7598C249.723 10.9121 249.459 11.123 249.26 11.3926C249.061 11.6621 248.961 11.9785 248.961 12.3418C248.961 12.5996 249.02 12.834 249.137 13.0449C249.266 13.2441 249.459 13.4316 249.717 13.6074C249.975 13.7715 250.303 13.9238 250.701 14.0645C251.1 14.1934 251.58 14.3105 252.143 14.416C253.42 14.6504 254.615 14.9844 255.729 15.418C256.842 15.8516 257.744 16.4668 258.436 17.2637C259.139 18.0605 259.49 19.1328 259.49 20.4805C259.49 21.3242 259.297 22.1035 258.91 22.8184C258.523 23.5215 257.967 24.1426 257.24 24.6816C256.514 25.209 255.641 25.6191 254.621 25.9121C253.602 26.2051 252.453 26.3516 251.176 26.3516C249.359 26.3516 247.824 26.0293 246.57 25.3848C245.316 24.7285 244.367 23.9082 243.723 22.9238C243.09 21.9277 242.773 20.9199 242.773 19.9004H248.293C248.316 20.4863 248.457 20.9668 248.715 21.3418C248.984 21.7168 249.342 21.9922 249.787 22.168C250.232 22.3438 250.748 22.4316 251.334 22.4316C251.873 22.4316 252.318 22.3555 252.67 22.2031C253.033 22.0508 253.309 21.8457 253.496 21.5879C253.684 21.3184 253.777 21.0078 253.777 20.6562Z" fill="#080808"/>
<defs>
<linearGradient id="paint0_linear_1048_1868" x1="75" y1="14" x2="2" y2="14" gradientUnits="userSpaceOnUse">
<stop stop-color="#B176F2"/>
<stop offset="1" stop-color="#FAC1F1"/>
</linearGradient>
</defs>
</svg>
