<svg width="67" height="67" viewBox="0 0 67 67" fill="none" xmlns="http://www.w3.org/2000/svg">
<rect width="67" height="67" rx="12" fill="#EBFAF5"/>
<path d="M39.2943 26.701L39.2943 26.701L45.613 32.9678L45.792 33.1453L45.6131 33.3228L39.2943 39.5937L39.2874 39.6006L39.2873 39.6005C39.1458 39.7303 39.0324 39.8869 38.9536 40.0609C38.8748 40.235 38.8323 40.4229 38.8285 40.6135C38.8248 40.8041 38.8598 40.9935 38.9317 41.1705C39.0035 41.3474 39.1107 41.5083 39.2469 41.6434C39.3831 41.7785 39.5455 41.8851 39.7244 41.9567C39.9034 42.0282 40.0951 42.0633 40.2882 42.0596C40.4812 42.0559 40.6715 42.0137 40.8475 41.9354C41.0236 41.8571 41.1817 41.7444 41.3126 41.6043L41.3192 41.5972L41.3193 41.5974L48.8317 34.1477C49.0998 33.8816 49.25 33.5212 49.25 33.1459C49.25 32.7706 49.0998 32.4103 48.8318 32.1441L39.2943 26.701ZM39.2943 26.701L39.2916 26.6985C39.0872 26.5016 38.9469 26.2489 38.8884 25.9729C38.8298 25.6969 38.8557 25.4099 38.9627 25.1485C39.0697 24.887 39.2531 24.6628 39.4897 24.5049C39.7263 24.347 40.0053 24.2626 40.2908 24.2627C40.4824 24.2632 40.6718 24.3017 40.8479 24.3759C41.0242 24.4501 41.1835 24.5586 41.3165 24.6947L41.3165 24.6947L41.3193 24.6975L48.8317 32.144L39.2943 26.701ZM36.0084 21.9627L36.0092 21.9626L36.1516 21.9617C36.1517 21.9617 36.1518 21.9617 36.1519 21.9617C36.3678 21.9716 36.5785 22.0297 36.7683 22.1316C36.9582 22.2336 37.1223 22.3767 37.2483 22.5501C37.3743 22.7234 37.4591 22.9227 37.4965 23.1329C37.5339 23.3431 37.5229 23.559 37.4643 23.7644L37.4634 23.7677L32.0144 43.9277L32.0142 43.9277L32.0121 43.9368C31.9693 44.1225 31.8891 44.2978 31.7763 44.4523C31.6635 44.6068 31.5204 44.7373 31.3553 44.8358L31.4835 45.0505L31.3553 44.8358C31.1903 44.9344 31.0068 44.999 30.8158 45.0257C30.6248 45.0524 30.4304 45.0406 30.2441 44.9911C30.0578 44.9416 29.8837 44.8553 29.732 44.7377C29.5804 44.62 29.4544 44.4733 29.3614 44.3064C29.2684 44.1395 29.2104 43.9559 29.1906 43.7665C29.1709 43.577 29.1899 43.3855 29.2465 43.2035L29.2467 43.2035L29.2492 43.1945L34.694 23.0355L34.694 23.0355L34.6949 23.0321C34.7696 22.7387 34.9372 22.4765 35.1735 22.2839C35.4098 22.0913 35.7024 21.9786 36.0084 21.9627ZM26.6644 24.2626L26.6647 24.2626C26.9541 24.2534 27.2394 24.3313 27.4831 24.4858C27.7267 24.6403 27.9172 24.8641 28.0298 25.1275C28.1424 25.3908 28.1719 25.6817 28.1146 25.9619C28.0574 26.2421 27.9159 26.4989 27.7085 26.6983L27.7085 26.6983L27.7058 26.701L21.3828 32.9678L21.2038 33.1453L21.3828 33.3228L27.7056 39.5937C27.8385 39.7257 27.9439 39.8822 28.0156 40.0544C28.0874 40.2265 28.1242 40.4108 28.1241 40.597C28.1239 40.7831 28.0868 40.9674 28.0148 41.1395C27.9428 41.3115 27.8373 41.4679 27.7042 41.5997C27.5711 41.7315 27.4129 41.8361 27.2388 41.9074L27.3336 42.1388L27.2388 41.9074C27.0647 41.9788 26.878 42.0154 26.6895 42.0152C26.501 42.015 26.3144 41.978 26.1404 41.9063C25.9665 41.8346 25.8086 41.7297 25.6757 41.5976L25.6756 41.5974L18.1683 34.1477C17.9002 33.8816 17.75 33.5212 17.75 33.1459C17.75 32.7706 17.9002 32.4102 18.1682 32.1441C18.1682 32.144 18.1683 32.144 18.1683 32.144L25.6755 24.6974L25.6755 24.6975L25.6784 24.6946C25.9375 24.4291 26.2911 24.2739 26.6644 24.2626Z" fill="#009E68" stroke="#EBFAF5" stroke-width="0.5"/>
</svg>
