<svg width="33" height="25" viewBox="0 0 33 25" fill="none" xmlns="http://www.w3.org/2000/svg">
<path d="M22.2943 5.70101L22.2943 5.70103L28.613 11.9678L28.792 12.1453L28.6131 12.3228L22.2943 18.5937L22.2874 18.6006L22.2873 18.6005C22.1458 18.7303 22.0324 18.8869 21.9536 19.0609C21.8748 19.235 21.8323 19.4229 21.8285 19.6135C21.8248 19.8041 21.8598 19.9935 21.9317 20.1705C22.0035 20.3474 22.1107 20.5083 22.2469 20.6434C22.3831 20.7785 22.5455 20.8851 22.7244 20.9567C22.9034 21.0282 23.0951 21.0633 23.2882 21.0596C23.4812 21.0559 23.6715 21.0137 23.8475 20.9354C24.0236 20.8571 24.1817 20.7444 24.3126 20.6043L24.3192 20.5972L24.3193 20.5974L31.8317 13.1477C32.0998 12.8816 32.25 12.5212 32.25 12.1459C32.25 11.7706 32.0998 11.4103 31.8318 11.1441L22.2943 5.70101ZM22.2943 5.70101L22.2916 5.69845C22.0872 5.50156 21.9469 5.24888 21.8884 4.97289C21.8298 4.69692 21.8557 4.40988 21.9627 4.14845C22.0697 3.88701 22.2531 3.66284 22.4897 3.50492C22.7263 3.34701 23.0053 3.26259 23.2908 3.2627C23.4824 3.26318 23.6718 3.30168 23.8479 3.37589C24.0242 3.45012 24.1835 3.55856 24.3165 3.6947L24.3165 3.69472L24.3193 3.69751L31.8317 11.144L22.2943 5.70101ZM19.0084 0.962672L19.0092 0.962624L19.1516 0.961718C19.1517 0.961722 19.1518 0.961727 19.1519 0.961732C19.3678 0.971624 19.5785 1.02974 19.7683 1.13163C19.9582 1.23357 20.1223 1.37666 20.2483 1.55005C20.3743 1.72345 20.4591 1.9227 20.4965 2.1329C20.5339 2.3431 20.5229 2.55896 20.4643 2.76438L20.4634 2.76771L15.0144 22.9277L15.0142 22.9277L15.0121 22.9368C14.9693 23.1225 14.8891 23.2978 14.7763 23.4523C14.6635 23.6068 14.5204 23.7373 14.3553 23.8358L14.4835 24.0505L14.3553 23.8358C14.1903 23.9344 14.0068 23.999 13.8158 24.0257C13.6248 24.0524 13.4304 24.0406 13.2441 23.9911C13.0578 23.9416 12.8837 23.8553 12.732 23.7377C12.5804 23.62 12.4544 23.4733 12.3614 23.3064C12.2684 23.1395 12.2104 22.9559 12.1906 22.7665C12.1709 22.577 12.1899 22.3855 12.2465 22.2035L12.2467 22.2035L12.2492 22.1945L17.694 2.03549L17.694 2.03549L17.6949 2.03206C17.7696 1.73874 17.9372 1.4765 18.1735 1.28393C18.4098 1.09135 18.7024 0.978644 19.0084 0.962672ZM9.66435 3.26259L9.6647 3.26257C9.95413 3.25338 10.2394 3.33128 10.4831 3.4858C10.7267 3.6403 10.9172 3.86408 11.0298 4.12746C11.1424 4.39083 11.1719 4.68168 11.1146 4.96188C11.0574 5.2421 10.9159 5.49887 10.7085 5.69832L10.7085 5.6983L10.7058 5.70097L4.38284 11.9678L4.20375 12.1453L4.38279 12.3228L10.7056 18.5937C10.8385 18.7257 10.9439 18.8822 11.0156 19.0544C11.0874 19.2265 11.1242 19.4108 11.1241 19.597C11.1239 19.7831 11.0868 19.9674 11.0148 20.1395C10.9428 20.3115 10.8373 20.4679 10.7042 20.5997C10.5711 20.7315 10.4129 20.8361 10.2388 20.9074L10.3336 21.1388L10.2388 20.9074C10.0647 20.9788 9.87803 21.0154 9.68951 21.0152C9.50099 21.015 9.31441 20.978 9.14044 20.9063C8.96646 20.8346 8.80857 20.7297 8.67572 20.5976L8.67556 20.5974L1.1683 13.1477C0.900209 12.8816 0.75 12.5212 0.75 12.1459C0.75 11.7706 0.900178 11.4102 1.16822 11.1441C1.16824 11.144 1.16827 11.144 1.1683 11.144L8.67552 3.69745L8.67554 3.69747L8.67837 3.69458C8.93747 3.42913 9.29112 3.27393 9.66435 3.26259Z" fill="#009E68" stroke="#EBFAF5" stroke-width="0.5"/>
</svg>
