<svg width="74" height="76" viewBox="0 0 74 76" fill="none" xmlns="http://www.w3.org/2000/svg">
<g clip-path="url(#clip0_1048_1918)">
<path d="M25.4244 68.1611C25.5923 68.246 25.7584 68.3277 25.9231 68.4144L25.5235 68.9285C26.3945 68.6793 28.0816 69.4686 28.9961 69.6552C30.0842 69.8728 31.186 70.0823 32.3017 70.2839C33.6615 70.5137 36.7854 71.556 37.9942 70.524C39.3676 69.3505 38.1616 66.6512 37.8699 65.2635C37.5936 63.9514 37.3173 62.6394 37.0411 61.3274L36.5915 59.1808C36.5412 58.9393 36.4896 58.7027 36.4411 58.4643C36.4761 57.5983 36.2572 57.5133 35.7628 58.1793L34.6242 57.8767L34.8526 58.0663L34.5415 56.9097L35.0654 56.5522C34.8688 56.5561 34.6773 56.6173 34.5146 56.7281C34.3519 56.8389 34.225 56.9946 34.1494 57.1761C34.0738 57.3576 34.0529 57.5569 34.0892 57.7497C34.1255 57.9425 34.2174 58.1203 34.3537 58.2613C34.5445 58.4756 34.7952 58.6281 35.0737 58.6993C35.3523 58.7705 35.6461 58.757 35.9176 58.6608C36.1223 58.6086 36.3094 58.5029 36.4597 58.3544C36.6099 58.206 36.7177 58.0202 36.772 57.8165L36.8423 57.5264C36.8991 57.3232 36.9003 57.1086 36.8455 56.9051C36.7908 56.7016 36.6822 56.5167 36.5312 56.3698C35.3211 55.377 33.7781 56.0141 33.8317 57.6366C33.8851 59.0308 34.471 60.5531 34.7731 61.9222C35.1029 63.4739 35.4417 65.0219 35.7897 66.566C36.003 67.2663 36.1609 67.9825 36.262 68.7078C36.2637 69.1593 36.3653 69.181 36.5625 68.7796C36.1213 68.751 35.682 68.7255 35.2218 68.708C33.8853 68.6338 32.5479 68.5236 31.2094 68.3774C29.7108 68.2235 28.2181 68.0282 26.7303 67.8047C26.0511 67.7021 25.5271 67.5225 25.0182 68.0531C24.9386 68.1376 24.8878 68.2449 24.8732 68.3597C24.8587 68.4746 24.8809 68.5909 24.9369 68.692C24.9944 68.8109 25.0859 68.9099 25.2 68.9765C25.314 69.0431 25.4455 69.0744 25.5776 69.0664C25.6767 69.0662 25.773 69.0336 25.8519 68.9736C25.9308 68.9135 25.9878 68.8293 26.0142 68.734L26.0499 68.6415C26.069 68.5623 26.0647 68.4795 26.0377 68.4029C26.0107 68.3263 25.962 68.2593 25.8975 68.2098C25.833 68.1603 25.7556 68.1305 25.6744 68.1241C25.5932 68.1176 25.5118 68.1347 25.4399 68.1733L25.4244 68.1611Z" fill="#5A69F2" fill-opacity="0.3"/>
<path d="M37.7329 69.2624C34.7229 66.4087 32.4782 62.8468 31.2028 58.9006C30.8477 57.837 29.1379 58.266 29.4908 59.3478C30.861 63.5783 33.4384 67.3141 36.9077 70.0983C37.4813 70.5622 38.2939 69.7928 37.7329 69.2624Z" fill="#5A69F2" fill-opacity="0.3"/>
<path d="M28.9074 54.0056C28.4296 52.1961 28.0764 50.3557 27.8502 48.4972C27.6784 46.9642 27.8293 45.2913 27.3729 43.8168C27.1698 43.1561 26.1138 43.0553 25.9431 43.7967C25.611 45.3542 26.0322 47.1281 26.3379 48.6726C26.7178 50.5709 27.2295 52.4401 27.8692 54.2667C28.0864 54.8856 29.0376 54.6578 28.8696 54.0063L28.9074 54.0056Z" fill="#5A69F2" fill-opacity="0.3"/>
<path d="M26.5341 39.2015C26.1975 35.1799 26.4693 31.1285 27.3404 27.1834C27.5604 26.1303 25.9695 25.6914 25.7154 26.7515C24.7778 30.8884 24.7389 35.1747 25.6013 39.3214C25.7056 39.8405 26.582 39.7404 26.5359 39.2046L26.5341 39.2015Z" fill="#5A69F2" fill-opacity="0.3"/>
<path d="M29.0339 21.8206C29.838 20.7643 30.4034 19.5372 31.0537 18.3837C31.558 17.4921 32.2927 15.5287 33.3212 15.2435C33.4439 15.2097 33.5574 15.1487 33.6533 15.0651C33.7492 14.9815 33.825 14.8775 33.8752 14.7608C33.9253 14.644 33.9484 14.5176 33.9428 14.3909C33.9373 14.2642 33.9031 14.1405 33.8429 14.029L33.7404 13.8514C33.627 13.6679 33.4584 13.525 33.2586 13.443C33.0588 13.361 32.8379 13.344 32.6274 13.3945C31.2838 13.6121 30.7409 15.3929 30.2516 16.4576C29.5122 18.0305 28.636 19.7415 28.3782 21.4718C28.3285 21.805 28.7715 22.2046 29.0421 21.8496L29.0339 21.8206Z" fill="#5A69F2" fill-opacity="0.3"/>
<path d="M36.8331 8.8309C38.1272 7.72853 39.4191 6.62467 40.7087 5.5193C41.7242 4.64541 43.0511 2.9575 44.289 2.56421C44.4235 2.52614 44.5477 2.45822 44.6523 2.36556C44.757 2.27289 44.8393 2.15789 44.8932 2.02914C44.9472 1.90039 44.9712 1.76123 44.9637 1.6221C44.9561 1.48296 44.917 1.34745 44.8495 1.22572L44.7537 1.02307C44.6331 0.816025 44.4479 0.654239 44.2262 0.562369C44.0045 0.470499 43.7585 0.453581 43.5258 0.514192C42.1486 0.776496 41.0487 2.48983 40.1358 3.43129C38.7042 4.90342 37.2784 6.38339 35.8587 7.87121C35.238 8.51711 36.1612 9.388 36.8363 8.82906L36.8331 8.8309Z" fill="#5A69F2" fill-opacity="0.3"/>
</g>
<defs>
<clipPath id="clip0_1048_1918">
<rect width="51" height="58" fill="white" transform="translate(0 25.5) rotate(-30)"/>
</clipPath>
</defs>
</svg>
