<svg width="81" height="81" viewBox="0 0 81 81" fill="none" xmlns="http://www.w3.org/2000/svg">
<g clip-path="url(#clip0_1048_1931)">
<path d="M52.6177 22.2005L59.5905 20.3322C59.8547 20.2614 60.0799 20.0886 60.2167 19.8517C60.3534 19.6148 60.3905 19.3334 60.3197 19.0692C60.2489 18.805 60.0761 18.5797 59.8392 18.443C59.6023 18.3062 59.3208 18.2692 59.0567 18.34L52.0839 20.2083C51.8197 20.2791 51.5944 20.4519 51.4577 20.6888C51.3209 20.9257 51.2839 21.2071 51.3547 21.4713C51.4255 21.7355 51.5983 21.9608 51.8352 22.0975C52.072 22.2343 52.3535 22.2713 52.6177 22.2005Z" fill="#8B96F6" fill-opacity="0.5"/>
<path d="M48.7047 27.5195L60.6581 24.3166C60.9222 24.2458 61.1475 24.073 61.2842 23.8361C61.421 23.5993 61.4581 23.3178 61.3873 23.0536C61.3165 22.7894 61.1436 22.5642 60.9068 22.4274C60.6699 22.2907 60.3884 22.2536 60.1242 22.3244L48.1709 25.5273C47.9067 25.5981 47.6815 25.7709 47.5447 26.0078C47.408 26.2446 47.3709 26.5261 47.4417 26.7903C47.5125 27.0545 47.6853 27.2797 47.9222 27.4165C48.1591 27.5532 48.4405 27.5903 48.7047 27.5195Z" fill="#8B96F6" fill-opacity="0.5"/>
<path d="M49.7724 31.5039L61.7257 28.3011C61.9899 28.2303 62.2151 28.0574 62.3519 27.8206C62.4886 27.5837 62.5257 27.3022 62.4549 27.038C62.3841 26.7739 62.2113 26.5486 61.9744 26.4119C61.7375 26.2751 61.4561 26.238 61.1919 26.3088L49.2385 29.5117C48.9744 29.5825 48.7491 29.7553 48.6124 29.9922C48.4756 30.2291 48.4386 30.5106 48.5093 30.7747C48.5801 31.0389 48.753 31.2642 48.9898 31.4009C49.2267 31.5377 49.5082 31.5747 49.7724 31.5039Z" fill="#8B96F6" fill-opacity="0.5"/>
<path d="M50.84 35.4884L62.7933 32.2855C63.0575 32.2147 63.2827 32.0419 63.4195 31.805C63.5563 31.5681 63.5933 31.2867 63.5225 31.0225C63.4517 30.7583 63.2789 30.533 63.042 30.3963C62.8052 30.2595 62.5237 30.2225 62.2595 30.2933L50.3062 33.4962C50.042 33.5669 49.8167 33.7398 49.68 33.9766C49.5432 34.2135 49.5062 34.495 49.577 34.7592C49.6478 35.0234 49.8206 35.2486 50.0575 35.3854C50.2943 35.5221 50.5758 35.5592 50.84 35.4884Z" fill="#8B96F6" fill-opacity="0.5"/>
<path d="M51.9076 39.4728L63.8609 36.2699C64.1251 36.1991 64.3504 36.0263 64.4871 35.7894C64.6239 35.5526 64.6609 35.2711 64.5901 35.0069C64.5194 34.7427 64.3465 34.5175 64.1097 34.3807C63.8728 34.244 63.5913 34.2069 63.3271 34.2777L51.3738 37.4806C51.1096 37.5514 50.8844 37.7242 50.7476 37.9611C50.6109 38.1979 50.5738 38.4794 50.6446 38.7436C50.7154 39.0078 50.8882 39.233 51.1251 39.3698C51.3619 39.5065 51.6434 39.5436 51.9076 39.4728Z" fill="#8B96F6" fill-opacity="0.5"/>
<path d="M52.9752 43.4572L59.948 41.5889C60.2122 41.5181 60.4374 41.3453 60.5742 41.1084C60.7109 40.8716 60.748 40.5901 60.6772 40.3259C60.6064 40.0617 60.4336 39.8365 60.1967 39.6997C59.9599 39.5629 59.6784 39.5259 59.4142 39.5967L52.4414 41.465C52.1772 41.5358 51.952 41.7087 51.8152 41.9455C51.6785 42.1824 51.6414 42.4639 51.7122 42.728C51.783 42.9922 51.9558 43.2175 52.1927 43.3542C52.4296 43.491 52.7111 43.528 52.9752 43.4572Z" fill="#8B96F6" fill-opacity="0.5"/>
<path d="M59.3044 3.32676L5.51439 17.7397C4.7232 17.9543 4.04905 18.4732 3.63916 19.1831C3.22928 19.8931 3.11698 20.7363 3.32678 21.5288L17.7398 75.3188C17.9543 76.11 18.4732 76.7841 19.1831 77.194C19.8931 77.6039 20.7364 77.7162 21.5288 77.5064L75.3188 63.0934C76.11 62.8789 76.7842 62.36 77.194 61.65C77.6039 60.9401 77.7162 60.0968 77.5064 59.3044L63.0934 5.51437C62.8789 4.72318 62.36 4.04902 61.6501 3.63914C60.9401 3.22926 60.0968 3.11695 59.3044 3.32676ZM75.5142 59.8382C75.585 60.1024 75.5479 60.3839 75.4112 60.6207C75.2744 60.8576 75.0492 61.0304 74.785 61.1012L20.995 75.5142C20.7308 75.585 20.4493 75.5479 20.2125 75.4112C19.9756 75.2744 19.8028 75.0492 19.732 74.785L7.18736 27.9678L62.9696 13.021L75.5142 59.8382ZM62.4358 11.0287L6.65354 25.9755L5.31901 20.995C5.24822 20.7308 5.28528 20.4493 5.42203 20.2125C5.55878 19.9756 5.78402 19.8028 6.04821 19.732L59.8382 5.31898C60.1024 5.24819 60.3839 5.28525 60.6207 5.422C60.8576 5.55876 61.0304 5.784 61.1012 6.04819L62.4358 11.0287Z" fill="#8B96F6" fill-opacity="0.5"/>
<path d="M9.57035 20.9235L8.57424 21.1904C8.31005 21.2612 8.08481 21.434 7.94805 21.6709C7.8113 21.9077 7.77424 22.1892 7.84503 22.4534C7.91582 22.7176 8.08866 22.9428 8.32552 23.0796C8.56238 23.2163 8.84387 23.2534 9.10805 23.1826L10.1042 22.9157C10.3683 22.8449 10.5936 22.6721 10.7303 22.4352C10.8671 22.1983 10.9042 21.9169 10.8334 21.6527C10.7626 21.3885 10.5897 21.1632 10.3529 21.0265C10.116 20.8897 9.83453 20.8527 9.57035 20.9235Z" fill="#8B96F6" fill-opacity="0.5"/>
<path d="M14.5509 19.5889L13.5548 19.8558C13.2906 19.9266 13.0654 20.0995 12.9286 20.3363C12.7919 20.5732 12.7548 20.8547 12.8256 21.1189C12.8964 21.383 13.0692 21.6083 13.3061 21.745C13.543 21.8818 13.8245 21.9188 14.0886 21.8481L15.0848 21.5811C15.3489 21.5104 15.5742 21.3375 15.7109 21.1007C15.8477 20.8638 15.8847 20.5823 15.814 20.3181C15.7432 20.0539 15.5703 19.8287 15.3335 19.6919C15.0966 19.5552 14.8151 19.5181 14.5509 19.5889Z" fill="#8B96F6" fill-opacity="0.5"/>
<path d="M19.5314 18.2544L18.5353 18.5213C18.2711 18.5921 18.0459 18.7649 17.9091 19.0018C17.7724 19.2386 17.7353 19.5201 17.8061 19.7843C17.8769 20.0485 18.0497 20.2737 18.2866 20.4105C18.5234 20.5473 18.8049 20.5843 19.0691 20.5135L20.0652 20.2466C20.3294 20.1758 20.5547 20.003 20.6914 19.7661C20.8282 19.5293 20.8652 19.2478 20.7944 18.9836C20.7236 18.7194 20.5508 18.4942 20.3139 18.3574C20.0771 18.2207 19.7956 18.1836 19.5314 18.2544Z" fill="#8B96F6" fill-opacity="0.5"/>
<path d="M58.3798 7.84503L57.3837 8.11194C57.1195 8.18273 56.8943 8.35556 56.7575 8.59242C56.6207 8.82929 56.5837 9.11077 56.6545 9.37496C56.7253 9.63914 56.8981 9.86439 57.135 10.0011C57.3718 10.1379 57.6533 10.1749 57.9175 10.1042L58.9136 9.83725C59.1778 9.76646 59.403 9.59363 59.5398 9.35677C59.6765 9.1199 59.7136 8.83842 59.6428 8.57423C59.572 8.31005 59.3992 8.08481 59.1623 7.94805C58.9255 7.8113 58.644 7.77424 58.3798 7.84503Z" fill="#8B96F6" fill-opacity="0.5"/>
<path d="M47.6371 23.5351L48.6332 23.2682C48.8974 23.1974 49.1226 23.0245 49.2594 22.7877C49.3961 22.5508 49.4332 22.2693 49.3624 22.0051C49.2916 21.741 49.1188 21.5157 48.8819 21.379C48.6451 21.2422 48.3636 21.2052 48.0994 21.2759L47.1033 21.5428C46.8391 21.6136 46.6139 21.7865 46.4771 22.0233C46.3404 22.2602 46.3033 22.5417 46.3741 22.8059C46.4449 23.07 46.6177 23.2953 46.8546 23.432C47.0914 23.5688 47.3729 23.6059 47.6371 23.5351Z" fill="#8B96F6" fill-opacity="0.5"/>
<path d="M64.3948 38.2621L63.3987 38.5291C63.1345 38.5998 62.9093 38.7727 62.7725 39.0095C62.6358 39.2464 62.5987 39.5279 62.6695 39.7921C62.7403 40.0563 62.9131 40.2815 63.15 40.4183C63.3868 40.555 63.6683 40.5921 63.9325 40.5213L64.9286 40.2544C65.1928 40.1836 65.4181 40.0107 65.5548 39.7739C65.6916 39.537 65.7286 39.2555 65.6578 38.9913C65.587 38.7272 65.4142 38.5019 65.1773 38.3652C64.9405 38.2284 64.659 38.1914 64.3948 38.2621Z" fill="#8B96F6" fill-opacity="0.5"/>
<path d="M53.3992 9.17956L29.4926 15.5853C29.2284 15.6561 29.0031 15.829 28.8664 16.0658C28.7296 16.3027 28.6926 16.5842 28.7634 16.8483C28.8342 17.1125 29.007 17.3378 29.2439 17.4745C29.4807 17.6113 29.7622 17.6483 30.0264 17.5775L53.933 11.1718C54.1972 11.101 54.4225 10.9282 54.5592 10.6913C54.696 10.4544 54.733 10.1729 54.6623 9.90876C54.5915 9.64457 54.4186 9.41933 54.1818 9.28258C53.9449 9.14583 53.6634 9.10877 53.3992 9.17956Z" fill="#8B96F6" fill-opacity="0.5"/>
<path d="M19.1074 52.5321L47.9947 44.7918C48.2589 44.721 48.4841 44.5482 48.6208 44.3113C48.7576 44.0745 48.7947 43.793 48.7239 43.5288L43.3857 23.6066C43.3149 23.3424 43.1421 23.1171 42.9052 22.9804C42.6684 22.8436 42.3869 22.8066 42.1227 22.8774L13.2355 30.6177C12.9713 30.6885 12.7461 30.8613 12.6093 31.0982C12.4726 31.335 12.4355 31.6165 12.5063 31.8807L17.8444 51.8029C17.9152 52.0671 18.0881 52.2923 18.3249 52.4291C18.5618 52.5658 18.8433 52.6029 19.1074 52.5321ZM30.7094 43.1649L30.7163 43.1428L33.9998 32.4067L45.6679 43.28L29.3316 47.6573L30.7094 43.1649ZM26.9868 48.2856L20.4344 50.0413L24.087 39.2404L28.5557 43.1676L26.9868 48.2856ZM41.6604 25.1365L45.8012 40.5902L34.1994 29.7727C34.0675 29.6625 33.911 29.5855 33.7431 29.5485C33.5752 29.5114 33.4009 29.5153 33.2348 29.5598C33.0688 29.6043 32.9159 29.6881 32.789 29.8041C32.6622 29.9202 32.5651 30.065 32.506 30.2265L29.2117 41.0018L24.2832 36.6736C24.1523 36.5706 23.9992 36.4995 23.836 36.466C23.6728 36.4325 23.5041 36.4375 23.3432 36.4806C23.1823 36.5237 23.0337 36.6037 22.9091 36.7143C22.7846 36.8249 22.6875 36.963 22.6257 37.1177L18.9559 47.9819L14.7654 32.343L41.6604 25.1365Z" fill="#8B96F6" fill-opacity="0.5"/>
<path d="M52.7991 62.7218L40.8457 65.9247C40.5815 65.9955 40.3001 65.9584 40.0632 65.8217C39.8263 65.6849 39.6535 65.4597 39.5827 65.1955L36.3798 53.2421C36.309 52.978 36.3461 52.6965 36.4828 52.4596C36.6196 52.2227 36.8448 52.0499 37.109 51.9791L49.0624 48.7762C49.3265 48.7055 49.608 48.7425 49.8449 48.8793C50.0818 49.016 50.2546 49.2413 50.3254 49.5054L53.5283 61.4588C53.599 61.723 53.562 62.0044 53.4252 62.2413C53.2885 62.4782 53.0632 62.651 52.7991 62.7218ZM41.308 63.6656L51.2691 60.9965L48.6001 51.0354L38.639 53.7044L41.308 63.6656Z" fill="#8B96F6" fill-opacity="0.5"/>
<path d="M69.7329 58.1844L57.7796 61.3873C57.5154 61.4581 57.2339 61.421 56.997 61.2842C56.7602 61.1475 56.5873 60.9222 56.5165 60.6581L53.3137 48.7047C53.2429 48.4405 53.2799 48.1591 53.4167 47.9222C53.5534 47.6853 53.7787 47.5125 54.0429 47.4417L65.9962 44.2388C66.2604 44.168 66.5419 44.2051 66.7787 44.3418C67.0156 44.4786 67.1884 44.7038 67.2592 44.968L70.4621 56.9214C70.5329 57.1855 70.4958 57.467 70.3591 57.7039C70.2223 57.9408 69.9971 58.1136 69.7329 58.1844ZM58.2419 59.1281L68.203 56.4591L65.5339 46.498L55.5728 49.167L58.2419 59.1281Z" fill="#8B96F6" fill-opacity="0.5"/>
<path d="M35.8651 67.2592L23.9118 70.4621C23.6476 70.5329 23.3661 70.4958 23.1292 70.3591C22.8924 70.2223 22.7195 69.9971 22.6487 69.7329L19.4459 57.7796C19.3751 57.5154 19.4121 57.2339 19.5489 56.997C19.6856 56.7602 19.9109 56.5873 20.1751 56.5165L32.1284 53.3137C32.3926 53.2429 32.6741 53.2799 32.9109 53.4167C33.1478 53.5534 33.3206 53.7787 33.3914 54.0429L36.5943 65.9962C36.6651 66.2604 36.628 66.5419 36.4913 66.7787C36.3545 67.0156 36.1293 67.1884 35.8651 67.2592ZM24.3741 68.203L34.3352 65.5339L31.6661 55.5728L21.705 58.2419L24.3741 68.203Z" fill="#8B96F6" fill-opacity="0.5"/>
</g>
<defs>
<clipPath id="clip0_1048_1931">
<rect width="66" height="66" fill="white" transform="translate(0 17.082) rotate(-15)"/>
</clipPath>
</defs>
</svg>
