<svg width="67" height="67" viewBox="0 0 67 67" fill="none" xmlns="http://www.w3.org/2000/svg">
<rect width="67" height="67" rx="12" fill="#9E5CF2" fill-opacity="0.05"/>
<path d="M34.3393 25.5198C33.9964 24.8314 33.0068 24.8248 32.6607 25.5198L26.0982 38.7073C25.9493 39.0064 25.9709 39.3621 26.1548 39.6411L29.75 45.0937V48.5625C29.75 49.0802 30.1697 49.5 30.6875 49.5H36.3125C36.8302 49.5 37.25 49.0802 37.25 48.5625V45.0937L40.8451 39.6411C41.029 39.3621 41.0506 39.0064 40.9017 38.7073L34.3393 25.5198ZM35.375 47.625H31.625V45.75H35.375V47.625ZM35.8077 43.875H31.1923L28.0173 39.0595L32.5625 29.9257V39.125C32.5625 39.6427 32.9822 40.0625 33.5 40.0625C34.0177 40.0625 34.4375 39.6427 34.4375 39.125V29.9257L38.9827 39.0595L35.8077 43.875Z" fill="#9E5CF2"/>
<path d="M46.6875 17.5C45.4653 17.5 44.4232 18.2838 44.0362 19.375H36.3125V18.4375C36.3125 17.9197 35.8927 17.5 35.375 17.5H31.625C31.1073 17.5 30.6875 17.9197 30.6875 18.4375V19.375H22.9637C22.5767 18.2838 21.5347 17.5 20.3125 17.5C18.7617 17.5 17.5 18.7617 17.5 20.3125C17.5 21.8633 18.7617 23.125 20.3125 23.125C21.5347 23.125 22.5767 22.3406 22.9637 21.2494H26.4708C22.1023 23.7582 19.375 28.3929 19.375 33.4375C19.375 33.9552 19.7947 34.375 20.3125 34.375C20.8303 34.375 21.25 33.9552 21.25 33.4375C21.25 27.781 25.2374 22.8612 30.6875 21.5761V22.1875C30.6875 22.7052 31.1073 23.125 31.625 23.125H35.375C35.8927 23.125 36.3125 22.7052 36.3125 22.1875V21.5761C41.7626 22.8612 45.75 27.781 45.75 33.4375C45.75 33.9552 46.1698 34.375 46.6875 34.375C47.2052 34.375 47.625 33.9552 47.625 33.4375C47.625 28.3994 44.9031 23.7619 40.5292 21.25H44.0362C44.4232 22.3412 45.4653 23.125 46.6875 23.125C48.2383 23.125 49.5 21.8633 49.5 20.3125C49.5 18.7617 48.2383 17.5 46.6875 17.5ZM20.3125 21.25C19.7956 21.25 19.375 20.8294 19.375 20.3125C19.375 19.7956 19.7956 19.375 20.3125 19.375C20.8294 19.375 21.25 19.7956 21.25 20.3125C21.25 20.8294 20.8294 21.25 20.3125 21.25ZM34.4375 21.25H32.5625V19.375H34.4375V21.25ZM46.6875 21.25C46.1706 21.25 45.75 20.8294 45.75 20.3125C45.75 19.7956 46.1706 19.375 46.6875 19.375C47.2044 19.375 47.625 19.7956 47.625 20.3125C47.625 20.8294 47.2044 21.25 46.6875 21.25Z" fill="#9E5CF2"/>
</svg>
