<svg width="52" height="53" viewBox="0 0 52 53" fill="none" xmlns="http://www.w3.org/2000/svg">
<circle cx="26" cy="26.4751" r="24.5" stroke="#F1F1F1" stroke-width="3" stroke-dasharray="4 4"/>
<mask id="path-2-inside-1_1048_1908" fill="white">
<path d="M26 0.475097C21.3285 0.475097 16.7433 1.73372 12.7264 4.11863C8.70953 6.50355 5.40942 9.92665 3.17302 14.0281C0.936612 18.1295 -0.153464 22.7576 0.0173948 27.426C0.188253 32.0944 1.61373 36.6305 4.14397 40.5575C6.6742 44.4844 10.2157 47.6572 14.3962 49.7421C18.5766 51.827 23.2416 52.747 27.9006 52.4055C32.5596 52.064 37.0406 50.4736 40.8723 47.8014C44.7041 45.1293 47.7452 41.4741 49.6758 37.2202L26 26.4751L26 0.475097Z"/>
</mask>
<path d="M26 0.475097C21.3285 0.475097 16.7433 1.73372 12.7264 4.11863C8.70953 6.50355 5.40942 9.92665 3.17302 14.0281C0.936612 18.1295 -0.153464 22.7576 0.0173948 27.426C0.188253 32.0944 1.61373 36.6305 4.14397 40.5575C6.6742 44.4844 10.2157 47.6572 14.3962 49.7421C18.5766 51.827 23.2416 52.747 27.9006 52.4055C32.5596 52.064 37.0406 50.4736 40.8723 47.8014C44.7041 45.1293 47.7452 41.4741 49.6758 37.2202L26 26.4751L26 0.475097Z" stroke="#D9D9D9" stroke-width="6" mask="url(#path-2-inside-1_1048_1908)"/>
<circle cx="26" cy="26.4751" r="23" fill="white"/>
<path d="M19.4297 20.1001V21.1313L14.8828 31.4751H12.8984L17.4375 21.6001H11.5469V20.1001H19.4297ZM22.4844 29.9907H22.6406C23.3594 29.9907 23.9583 29.897 24.4375 29.7095C24.9219 29.5168 25.3073 29.2511 25.5938 28.9126C25.8802 28.5741 26.0859 28.1756 26.2109 27.7173C26.3359 27.259 26.3984 26.7616 26.3984 26.2251V24.2642C26.3984 23.8006 26.349 23.3944 26.25 23.0454C26.1562 22.6912 26.0208 22.397 25.8438 22.1626C25.6719 21.923 25.4714 21.7433 25.2422 21.6235C25.0182 21.5037 24.776 21.4438 24.5156 21.4438C24.2292 21.4438 23.9714 21.509 23.7422 21.6392C23.5182 21.7642 23.3281 21.9386 23.1719 22.1626C23.0208 22.3813 22.9036 22.6392 22.8203 22.936C22.7422 23.2277 22.7031 23.5402 22.7031 23.8735C22.7031 24.186 22.7396 24.4881 22.8125 24.7798C22.8906 25.0662 23.0052 25.3215 23.1562 25.5454C23.3073 25.7694 23.4974 25.9465 23.7266 26.0767C23.9557 26.2069 24.224 26.272 24.5312 26.272C24.8229 26.272 25.0911 26.2173 25.3359 26.1079C25.5807 25.9933 25.7943 25.8397 25.9766 25.647C26.1589 25.4543 26.3021 25.2381 26.4062 24.9985C26.5104 24.759 26.5677 24.5142 26.5781 24.2642L27.2969 24.4829C27.2969 24.8787 27.2135 25.2694 27.0469 25.6548C26.8854 26.035 26.6589 26.384 26.3672 26.7017C26.0807 27.0142 25.7448 27.2642 25.3594 27.4517C24.9792 27.6392 24.5651 27.7329 24.1172 27.7329C23.5755 27.7329 23.0964 27.6313 22.6797 27.4282C22.2682 27.2199 21.9245 26.9386 21.6484 26.5845C21.3776 26.2303 21.1745 25.8241 21.0391 25.3657C20.9036 24.9074 20.8359 24.4256 20.8359 23.9204C20.8359 23.3735 20.9193 22.8605 21.0859 22.3813C21.2526 21.9022 21.4948 21.4803 21.8125 21.1157C22.1302 20.7459 22.5156 20.4595 22.9688 20.2563C23.4271 20.048 23.9453 19.9438 24.5234 19.9438C25.138 19.9438 25.6771 20.0636 26.1406 20.3032C26.6042 20.5428 26.9948 20.8735 27.3125 21.2954C27.6302 21.7173 27.8698 22.2069 28.0312 22.7642C28.1927 23.3215 28.2734 23.9204 28.2734 24.561V25.2251C28.2734 25.897 28.2135 26.5454 28.0938 27.1704C27.974 27.7902 27.7786 28.3657 27.5078 28.897C27.2422 29.423 26.8906 29.8866 26.4531 30.2876C26.0208 30.6834 25.4896 30.9933 24.8594 31.2173C24.2344 31.436 23.5 31.5454 22.6562 31.5454H22.4844V29.9907ZM29.9844 22.8892V22.2876C29.9844 21.8553 30.0781 21.4621 30.2656 21.1079C30.4531 20.7537 30.7266 20.4699 31.0859 20.2563C31.4453 20.0428 31.8776 19.936 32.3828 19.936C32.9036 19.936 33.3411 20.0428 33.6953 20.2563C34.0547 20.4699 34.3281 20.7537 34.5156 21.1079C34.7031 21.4621 34.7969 21.8553 34.7969 22.2876V22.8892C34.7969 23.311 34.7031 23.6991 34.5156 24.0532C34.3333 24.4074 34.0625 24.6912 33.7031 24.9048C33.349 25.1183 32.9141 25.2251 32.3984 25.2251C31.888 25.2251 31.4505 25.1183 31.0859 24.9048C30.7266 24.6912 30.4531 24.4074 30.2656 24.0532C30.0781 23.6991 29.9844 23.311 29.9844 22.8892ZM31.2891 22.2876V22.8892C31.2891 23.0975 31.3281 23.2954 31.4062 23.4829C31.4896 23.6704 31.6146 23.8215 31.7812 23.936C31.9479 24.0506 32.1536 24.1079 32.3984 24.1079C32.6484 24.1079 32.8516 24.0506 33.0078 23.936C33.1693 23.8215 33.2891 23.6704 33.3672 23.4829C33.4453 23.2954 33.4844 23.0975 33.4844 22.8892V22.2876C33.4844 22.0741 33.4427 21.8735 33.3594 21.686C33.2812 21.4933 33.1615 21.3397 33 21.2251C32.8385 21.1105 32.6328 21.0532 32.3828 21.0532C32.1432 21.0532 31.9401 21.1105 31.7734 21.2251C31.612 21.3397 31.4896 21.4933 31.4062 21.686C31.3281 21.8735 31.2891 22.0741 31.2891 22.2876ZM35.4688 29.2954V28.686C35.4688 28.259 35.5625 27.8683 35.75 27.5142C35.9427 27.16 36.2188 26.8761 36.5781 26.6626C36.9375 26.4491 37.3698 26.3423 37.875 26.3423C38.3958 26.3423 38.8333 26.4491 39.1875 26.6626C39.5469 26.8761 39.8177 27.16 40 27.5142C40.1875 27.8683 40.2812 28.259 40.2812 28.686V29.2954C40.2812 29.7225 40.1875 30.1131 40 30.4673C39.8177 30.8215 39.5495 31.1053 39.1953 31.3188C38.8411 31.5324 38.4089 31.6392 37.8984 31.6392C37.3828 31.6392 36.9427 31.5324 36.5781 31.3188C36.2188 31.1053 35.9427 30.8215 35.75 30.4673C35.5625 30.1131 35.4688 29.7225 35.4688 29.2954ZM36.7812 28.686V29.2954C36.7812 29.5037 36.8229 29.7017 36.9062 29.8892C36.9948 30.0767 37.1224 30.2303 37.2891 30.3501C37.4557 30.4647 37.6562 30.522 37.8906 30.522C38.1562 30.522 38.3698 30.4647 38.5312 30.3501C38.6927 30.2303 38.8073 30.0793 38.875 29.897C38.9479 29.7095 38.9844 29.509 38.9844 29.2954V28.686C38.9844 28.4725 38.9427 28.272 38.8594 28.0845C38.7812 27.897 38.6589 27.7459 38.4922 27.6313C38.3307 27.5168 38.125 27.4595 37.875 27.4595C37.6302 27.4595 37.4271 27.5168 37.2656 27.6313C37.1042 27.7459 36.9818 27.897 36.8984 28.0845C36.8203 28.272 36.7812 28.4725 36.7812 28.686ZM38.3438 21.7251L32.7891 30.6157L31.8281 30.061L37.3828 21.1704L38.3438 21.7251Z" fill="black"/>
</svg>
