<svg width="93" height="94" viewBox="0 0 93 94" fill="none" xmlns="http://www.w3.org/2000/svg">
<g clip-path="url(#clip0_1048_1915)">
<path d="M4.06692 53.2271C13.6273 66.5223 31.7935 71.349 47.4864 69.9152C55.2248 69.2124 63.2423 66.2166 67.1975 59.0781C68.8905 55.9775 69.701 52.3361 68.8172 48.8559C68.2915 46.7421 67.0793 44.4192 64.758 43.9514C61.2243 43.2447 60.2677 47.2112 62.1323 49.5711C65.614 53.9266 72.7143 49.641 75.8998 47.0922C79.6325 44.1035 82.4882 40.224 85.0274 36.205C85.7465 35.0637 87.4211 36.3533 86.6933 37.4879C83.6388 42.2841 80.0361 46.9083 75.2398 50.0783C71.7635 52.3822 67.0255 54.4301 62.9021 52.5677C59.903 51.2029 58.0354 47.0969 59.8264 44.0856C61.6933 40.9036 66.1134 41.4245 68.4177 43.7548C74.8833 50.2345 69.7447 61.3454 63.8458 66.1186C55.6387 72.7614 43.4249 72.7897 33.5057 71.2365C21.6883 69.3608 10.1859 63.9277 3.29741 53.8294C2.97887 53.3409 3.70308 52.7524 4.0555 53.26L4.06692 53.2271Z" fill="#FFD5D5"/>
<path d="M75.8825 38.7703C77.0943 40.6066 82.8167 36.5589 83.8151 35.9661C84.6637 35.4595 85.6658 34.8348 86.6047 35.6273C87.609 36.4702 87.1267 38.3774 87.058 39.4499C86.8877 42.0976 86.8077 44.7454 86.5167 47.3695C86.3771 48.6514 84.5445 48.3517 84.569 47.1201C84.6196 44.9707 84.811 42.8187 84.9528 40.677C84.9853 40.2019 85.4612 37.7617 84.9623 37.5165C84.3951 37.8261 83.8531 38.18 83.3414 38.5747C81.3421 39.7096 77.5281 41.4686 75.2653 40.2123C75.1242 40.1479 75.0063 40.0416 74.9278 39.9078C74.8494 39.774 74.8141 39.6193 74.8267 39.4647L74.8575 39.0368C74.8653 38.9217 74.909 38.812 74.9825 38.7231C75.056 38.6342 75.1556 38.5706 75.2671 38.5414C75.3787 38.5122 75.4967 38.5187 75.6043 38.5601C75.712 38.6016 75.8039 38.6758 75.8671 38.7723L75.8825 38.7703Z" fill="#FFD5D5"/>
</g>
<defs>
<clipPath id="clip0_1048_1915">
<rect width="64.871" height="67.1442" fill="white" transform="matrix(0.79229 0.610145 0.610145 -0.79229 0 53.6729)"/>
</clipPath>
</defs>
</svg>
