<svg width="67" height="67" viewBox="0 0 67 67" fill="none" xmlns="http://www.w3.org/2000/svg">
<rect width="67" height="67" rx="12" fill="#FFF5F5"/>
<path d="M40.5698 27.5117C40.5698 25.2376 38.7376 23.3947 36.4767 23.3947H21.593C19.3322 23.3947 17.5 25.2376 17.5 27.5117V39.4883C17.5 41.7624 19.3322 43.6053 21.593 43.6053H36.4767C38.7376 43.6053 40.5698 41.7624 40.5698 39.4883V27.5117ZM38.3372 27.5117V39.4883C38.3372 40.5213 37.5037 41.3597 36.4767 41.3597H21.593C20.566 41.3597 19.7326 40.5213 19.7326 39.4883V27.5117C19.7326 26.4787 20.566 25.6404 21.593 25.6404H36.4767C37.5037 25.6404 38.3372 26.4787 38.3372 27.5117Z" fill="#FF3C31"/>
<path d="M49.4999 39.8761V27.124C49.4999 26.1854 49.0013 25.32 48.1932 24.853C47.3835 24.3844 46.3878 24.3889 45.5826 24.8604C42.9377 26.4129 38.8908 28.7873 38.8908 28.7873C38.5485 28.9894 38.3372 29.3577 38.3372 29.7574V37.2428C38.3372 37.6425 38.5485 38.0108 38.8908 38.2129C38.8908 38.2129 42.9377 40.5872 45.5826 42.1397C46.3878 42.6113 47.3835 42.6158 48.1932 42.1472C49.0013 41.6801 49.4999 40.8148 49.4999 39.8761ZM47.2674 27.124V39.8761C47.2674 40.0108 47.1959 40.1336 47.0813 40.201C46.9653 40.2668 46.8224 40.2668 46.7078 40.1995L40.5697 36.5975V30.4026L46.7078 26.8006C46.8224 26.7333 46.9653 26.7333 47.0813 26.7992C47.1959 26.8665 47.2674 26.9893 47.2674 27.124Z" fill="#FF3C31"/>
<path d="M33.5001 27.8859H30.5234C29.9072 27.8859 29.4071 28.3889 29.4071 29.0087C29.4071 29.6285 29.9072 30.1315 30.5234 30.1315H33.5001C34.1163 30.1315 34.6164 29.6285 34.6164 29.0087C34.6164 28.3889 34.1163 27.8859 33.5001 27.8859Z" fill="#FF3C31"/>
</svg>
